PathFileType	4	(X/Y/Z)	D:\TRACE\v60_Jaco2_6-2-23\ArmBody_Mo2_DMP_1-v60.trc
DataRate	CameraRate	NumFrames	NumMarkers	Units	OrigDataRate	OrigDataStartFrame	OrigNumFrames
100.00	100.00	      38	9	mm	100.00	4914	      6551
Frame#	Time	front left toe			Front right toe			aft left toe			aft right toe			Arm			FL body			FR body			AL Body			AR Body			
		X1	Y1	Z1	X2	Y2	Z2	X3	Y3	Z3	X4	Y4	Z4	X5	Y5	Z5	X6	Y6	Z6	X7	Y7	Z7	X8	Y8	Z8	X9	Y9	Z9	

4914	49.130	-229.36568	0.39587	-315.88705	214.42061	-7.52341	-289.00995	-156.79309	33.85140	334.43301	112.36029	44.42982	319.60788	104.69883	1017.66382	-742.60394	-90.72292	532.61475	-443.90253	67.90840	538.15033	-438.60251	-114.90161	597.91376	499.71454	39.97602	590.00281	505.37915	
4915	49.140	-230.45593	-4.74933	-318.59772	215.49995	-7.14564	-288.65042	-155.95833	33.30596	334.46664	113.02560	42.82100	317.37903	105.72416	1017.21216	-742.65710	-91.40453	532.47485	-445.48151	67.64030	538.40405	-440.04147	-118.30336	597.65515	498.21640	36.89827	589.80847	504.12387	
4916	49.150	-231.05037	-5.34761	-319.65549	215.77563	-7.28012	-288.75064	-154.44182	32.84265	334.61224	114.29936	41.60213	317.23154	107.20921	1016.91223	-742.70557	-91.53177	532.50171	-447.14822	67.24351	538.50256	-441.34744	-121.12753	598.37042	496.76126	33.22050	590.53088	502.91248	
4917	49.160	-230.33334	-6.21655	-320.12457	215.84123	-6.90938	-288.61511	-154.22028	32.92820	334.45212	115.67864	42.25101	317.68436	108.55285	1016.55670	-743.49933	-91.96696	532.81952	-448.58624	67.18314	538.99896	-442.10669	-124.75386	599.27997	495.17914	30.02831	591.66986	501.97214	
4918	49.170	-229.16519	-5.50473	-320.01202	216.71146	-5.62734	-288.97128	-153.71602	32.95749	334.29642	115.88963	43.56159	318.86346	109.61461	1016.09454	-744.86865	-92.11485	534.22260	-450.07407	66.48262	540.01849	-442.79980	-127.57045	600.67639	493.83716	26.67446	592.88385	500.88785	
4919	49.180	-228.78404	-6.47764	-320.25836	215.45114	-2.03596	-288.58075	-153.91827	36.40831	332.42242	115.97320	42.91677	318.27713	110.37930	1015.79962	-746.12872	-91.97491	535.69830	-451.42773	66.76971	541.29840	-444.06693	-131.45108	601.24042	492.20535	23.30393	593.74475	499.90903	
4920	49.190	-228.18254	-6.63178	-320.95081	210.44107	1.66441	-286.30795	-152.32703	40.99282	333.90097	116.42867	42.31055	317.68829	111.04675	1015.53418	-746.71796	-91.99369	536.45099	-452.72379	66.65302	542.70099	-444.88388	-134.47713	600.78821	488.37082	20.69513	594.14716	498.69394	
4921	49.200	-227.09615	-6.75985	-320.82211	204.44078	8.40838	-284.86795	-151.05020	47.25256	336.08502	116.83848	42.27386	317.85977	111.53982	1016.49152	-746.50745	-92.00352	537.08295	-454.04886	66.50199	542.77338	-445.32474	-137.47052	601.59393	487.10086	17.47292	594.78491	498.12314	
4922	49.210	-225.89250	-6.48838	-320.80005	200.22214	17.58294	-284.39676	-151.24792	58.31378	334.81564	118.06220	42.23132	318.14261	112.64217	1017.56152	-746.13049	-92.06550	537.55829	-454.93756	66.31091	543.09875	-445.93454	-139.25157	602.32715	485.81787	15.24935	595.55969	497.26810	
4923	49.220	-225.23209	-5.98619	-320.49515	197.80888	29.58702	-284.51202	-153.54648	69.90723	333.64487	118.80533	41.89610	318.34583	114.11957	1018.98145	-746.02759	-92.17010	537.76282	-455.46667	66.18113	543.24548	-446.20032	-141.64992	603.08014	485.31412	13.68940	596.08868	496.72675	
4924	49.230	-224.03206	-6.04616	-320.53125	196.85094	42.32972	-285.40900	-160.97943	83.35575	330.12833	119.65267	41.28440	318.35358	115.96404	1019.05487	-745.94080	-92.73386	537.91364	-455.85089	65.88456	543.21960	-446.27969	-142.78093	603.23114	485.08432	12.48516	596.24890	496.32318	
4925	49.240	-223.31273	-6.11588	-320.56830	195.63672	55.24460	-286.91232	-169.10941	95.28869	326.83749	122.40831	41.63482	319.19968	117.39069	1018.30090	-745.24847	-93.15765	537.87708	-456.05115	65.36737	543.20618	-446.23093	-144.17253	602.99811	484.66165	11.32221	596.14038	496.36752	
4926	49.250	-222.37450	-5.93400	-320.14066	195.12558	68.48469	-287.40845	-178.60370	108.48242	323.19107	122.16936	40.80437	318.62177	118.17220	1017.18323	-744.58826	-93.42062	538.04736	-456.11530	64.87686	543.32916	-446.12753	-144.09744	602.77405	484.79483	10.12664	595.66119	496.41180	
4927	49.260	-221.48096	-5.45301	-319.71552	192.76009	80.66795	-288.69043	-187.42850	121.07880	319.65756	122.85367	40.36415	318.92636	118.54484	1016.72803	-744.22278	-93.75179	538.69891	-455.94965	65.16349	543.90009	-446.42212	-145.05934	602.74811	484.93384	8.49720	595.59564	496.79840	
4928	49.270	-220.33554	-5.28871	-319.78226	190.44505	92.60822	-289.35385	-195.90001	132.97220	317.12613	124.62391	40.40556	319.52112	118.52864	1016.76196	-743.96191	-93.88982	539.29468	-455.85455	64.55859	543.74969	-445.85834	-145.66585	602.83899	484.98425	9.08627	594.99097	496.98953	
4929	49.280	-218.81888	-4.98480	-319.65082	186.07568	103.57822	-290.37448	-203.22896	144.39310	314.40518	124.68753	39.49323	319.68362	118.17844	1016.95050	-743.70239	-93.67942	539.72272	-455.72049	64.74394	543.77191	-445.48630	-146.36835	602.90790	485.39890	8.42256	594.78448	497.26929	
4930	49.290	-217.70895	-4.66489	-319.45844	182.16428	113.07459	-290.49942	-210.13449	154.77463	312.35999	127.62796	39.57820	320.46320	118.65508	1017.07587	-743.12689	-93.53149	539.82190	-455.11932	64.76014	543.72113	-444.87534	-146.69571	602.90863	485.88483	7.63607	594.26971	497.65659	
4931	49.300	-217.53781	-3.82981	-319.08856	176.95938	118.30958	-290.21066	-216.71376	162.42120	310.99997	127.47089	39.13131	320.28827	119.42696	1017.21503	-742.19440	-93.60870	540.05975	-454.40366	64.71310	543.79950	-444.28839	-146.91518	602.93195	486.33789	7.21935	594.16071	498.60934	
4932	49.310	-215.89018	-3.73608	-318.80899	173.50597	120.69223	-288.88058	-223.63676	167.02214	310.56229	128.01088	38.32244	320.47159	120.83333	1017.38123	-740.99646	-93.89653	540.64612	-453.46155	64.40227	543.68939	-443.24173	-147.34532	603.37219	488.36392	6.98347	593.84332	499.32388	
4933	49.320	-215.72968	-2.72934	-318.50226	168.73930	119.86083	-287.87534	-230.69905	169.05519	310.72281	129.63197	38.12984	320.91382	122.66058	1017.15002	-739.73853	-93.91517	541.09125	-452.76453	64.38946	543.68506	-442.13022	-147.20084	603.50031	489.35242	6.81970	593.55981	500.37711	
4934	49.330	-214.61191	-2.05412	-318.19934	166.10609	117.94605	-286.28674	-237.65875	168.92201	311.16629	130.28746	37.30092	321.06421	124.35014	1017.02136	-738.57208	-94.12135	541.54791	-451.76465	64.07346	543.76312	-441.45905	-147.30725	604.15515	490.33725	6.91643	593.46973	501.14880	
4935	49.340	-213.40750	-1.52984	-318.03857	162.62694	113.81976	-284.82492	-244.31822	166.65498	312.12946	132.08984	37.08522	321.36905	126.43970	1016.90021	-737.35535	-94.21157	541.86664	-450.64767	64.88161	543.72040	-440.58655	-146.90187	604.45428	491.39420	5.95617	593.88239	502.71021	
4936	49.350	-212.43994	-1.08458	-317.55295	159.23344	108.19929	-283.34656	-251.34258	163.32417	313.41263	132.67627	36.32804	321.67337	127.83791	1016.77362	-735.89172	-94.12743	542.39081	-449.50925	64.56613	543.53467	-439.39502	-146.92651	604.61963	492.73376	6.52084	593.15692	503.42642	
4937	49.360	-211.53355	-0.44496	-317.03174	155.17245	101.04504	-281.46463	-257.98349	158.53188	315.02487	133.89374	35.98783	322.06781	129.53651	1016.41266	-734.56299	-94.00681	542.60260	-448.01740	64.39365	543.13245	-437.62454	-146.86880	604.96240	493.90442	6.42274	593.02814	505.01523	
4938	49.370	-210.58890	0.10696	-316.61743	150.46725	92.38647	-279.45596	-263.90326	152.35590	316.25577	134.95946	35.33737	322.49872	131.40689	1016.22437	-733.38281	-94.01044	543.09875	-446.63889	64.90321	543.12573	-436.63428	-146.83464	605.24194	495.39145	6.40605	592.77942	506.37497	
4939	49.380	-209.45174	0.76331	-316.30640	145.67348	82.92981	-277.10596	-270.55789	144.57758	318.04614	135.90889	34.95627	322.98566	133.32832	1015.85553	-732.01935	-93.48441	543.11835	-445.31662	64.75428	542.58630	-434.68484	-146.55072	606.34760	497.56320	6.51891	592.60480	507.99872	
4940	49.390	-208.36830	1.15352	-315.94165	140.78737	72.30592	-274.67667	-276.80182	136.01514	319.29770	137.44547	34.67815	323.53003	134.99695	1015.57440	-730.80444	-93.28360	543.59534	-443.82761	65.14579	542.11310	-433.14899	-146.00356	606.75720	499.07492	6.65257	592.19885	509.39438	
4941	49.400	-207.91132	2.40387	-315.71790	137.87799	61.28364	-271.06216	-282.25711	126.11932	321.11649	138.18845	34.06902	323.49649	136.78012	1015.10950	-729.56848	-93.07015	544.00305	-442.33542	65.85055	541.98315	-431.94165	-145.91119	606.85315	500.56458	6.68476	591.98785	511.01950	
4942	49.410	-205.60002	1.78676	-315.47546	134.27794	49.43963	-267.28748	-289.07648	116.14801	322.96716	139.14571	33.49572	324.02530	139.10893	1014.64929	-728.26923	-92.61699	544.12042	-440.77719	65.57973	541.53210	-429.98270	-146.27530	606.98242	501.82935	6.58291	591.37524	512.68945	
4943	49.420	-204.28000	2.19977	-314.95923	130.83847	38.12854	-263.89862	-294.53802	105.27200	325.25592	140.42188	33.12738	324.30957	141.41301	1014.10681	-726.88708	-92.65977	544.23456	-439.26196	65.92846	540.72321	-428.27756	-146.15616	607.09528	503.33423	5.82308	591.12897	514.27405	
4944	49.430	-203.36961	2.77021	-314.67621	127.16141	26.92258	-261.64291	-298.76053	95.48288	327.71042	141.16301	32.66866	324.56281	143.95190	1013.63373	-725.52338	-92.12827	544.67145	-437.44461	65.99853	540.28119	-426.57907	-146.06801	607.02032	505.00595	6.58811	590.04211	515.79504	
4945	49.440	-202.12770	3.57891	-314.41547	125.92184	16.99647	-258.42041	-301.95688	86.23473	330.08362	142.57944	32.04965	325.09528	146.70897	1013.54999	-723.98181	-91.60232	544.95801	-435.87662	66.75716	540.13666	-425.26892	-146.07547	607.26477	506.41858	6.68566	589.46387	517.62091	
4946	49.450	-201.10323	4.16995	-314.09964	127.08093	8.57435	-255.28261	-303.49655	77.61115	332.55994	143.45305	31.84338	325.86267	149.48158	1013.42969	-722.43109	-91.50519	545.18011	-434.35675	66.75674	539.40894	-423.08600	-146.01514	606.89368	507.97073	5.80752	589.10107	519.67413	
4947	49.460	-200.18471	4.61205	-313.66589	126.63716	6.11708	-257.75882	-303.54541	69.28882	334.98868	146.11407	31.40979	326.58319	152.24855	1012.93225	-720.68732	-90.85424	545.50940	-432.61749	67.71333	538.99365	-421.57254	-146.09364	606.90295	509.57550	7.93751	587.45782	521.39233	
4948	49.470	-199.05273	5.10990	-313.49197	128.39610	5.06172	-257.69861	-302.60260	61.86963	337.24741	145.44118	30.54902	326.51443	155.18845	1012.44684	-718.83002	-90.51633	546.25287	-430.80701	67.73835	539.12335	-419.78998	-146.15758	606.27539	511.32086	6.57354	586.69714	523.21558	
4949	49.480	-197.54552	5.61504	-312.82367	129.71381	5.91986	-256.45953	-300.59714	55.10710	339.13306	146.28569	29.82983	326.80524	158.15987	1012.07391	-716.22131	-90.63587	547.71851	-428.94116	68.20729	540.12390	-417.86978	-146.12962	605.56207	513.18420	6.42226	585.53247	525.13867	
4950	49.490	-196.49103	6.75586	-312.55869	130.05742	6.96687	-255.56311	-298.35095	48.87630	340.26376	147.22087	29.53976	327.51505	160.86940	1012.85815	-713.10767	-89.85429	549.38696	-427.08957	68.52029	540.93018	-415.61945	-146.09773	605.24927	514.92560	6.30127	584.52496	527.16870	
4951	49.500	-195.58952	7.73915	-312.14566	130.76573	8.18822	-255.03308	-294.80405	35.61359	340.73157	148.42175	28.89396	328.05869	162.88950	1014.69769	-709.68768	-89.20693	550.43372	-425.34210	68.75853	541.50500	-413.56924	-145.77032	605.12201	516.86523	5.79935	584.25562	529.37048	
